<?xml version="1.0" encoding="utf-8"?>
<!-- Generator: Adobe Illustrator 22.1.0, SVG Export Plug-In . SVG Version: 6.00 Build 0)  -->
<svg version="1.1" id="图层_1" xmlns="http://www.w3.org/2000/svg" xmlns:xlink="http://www.w3.org/1999/xlink" x="0px" y="0px"
	 viewBox="0 0 60 60" style="enable-background:new 0 0 60 60;" xml:space="preserve">
<style type="text/css">
	.st0{fill:#FFBE1B;}
	.st1{fill:#FFE37B;}
	.st2{fill:#FFFFFF;}
	.st3{fill:#5D8EF9;}
	.st4{fill:#330D84;}
	.st5{fill:#6857E5;}
	.st6{fill:#8AC9F9;}
	.st7{fill:#8C7BFD;}
	.st8{fill:#5932AE;}
</style>
<g>
	<path class="st0" d="M25.9,16.7c0-0.5,0.1-1,0.2-1.4c-0.7-0.3-1.5-0.5-2.3-0.5c-3,0-5.4,2.4-5.4,5.4c0,1.5,0.6,2.8,1.6,3.8h7.7
		c0.7-0.7,1.1-1.5,1.4-2.4C27.2,20.7,25.9,18.8,25.9,16.7z"/>
	<path class="st1" d="M25.9,16.7c-0.6-0.4-1.3-0.6-2.1-0.6c-2.2,0-4,1.8-4,4c0,1.7,1.1,3.2,2.6,3.8h2.8c1.4-0.5,2.4-1.7,2.6-3.2
		C26.6,19.8,25.9,18.3,25.9,16.7z"/>
	<path class="st2" d="M25.6,21c0-0.2-0.1-0.5-0.2-0.6c-0.1-0.2-0.3-0.3-0.6-0.3c0.1,0,0.1-0.1,0.1-0.1c0,0,0.1,0,0.1-0.1
		c0.2-0.1,0.3-0.4,0.3-0.7c0-0.3-0.1-0.5-0.3-0.7c-0.1-0.1-0.2-0.2-0.4-0.3c-0.1,0-0.1,0-0.2,0v-0.5h-0.7v0.5h-0.5v-0.5h-0.7v0.5
		h-0.2h-0.6v0.7h0.6v2.4h-0.6v0.7h0.6h0.2v0.5h0.7v-0.5h0.5v0.5h0.7v-0.5c0.4,0,0.7-0.2,0.8-0.3C25.5,21.5,25.6,21.3,25.6,21z
		 M24.3,19c0.1,0.1,0.2,0.2,0.2,0.3c0,0.2-0.1,0.3-0.2,0.3c-0.1,0.1-0.3,0.1-0.5,0.1h-0.4v-0.8h0.4C24,18.9,24.2,19,24.3,19z
		 M24.5,21.3c-0.1,0.1-0.3,0.1-0.6,0.1h-0.6v-0.9h0.5c0.3,0,0.5,0,0.6,0.1c0.1,0.1,0.2,0.2,0.2,0.4C24.7,21.1,24.7,21.2,24.5,21.3z"
		/>
	<path class="st0" d="M14.8,26.1l0.2,0L14.8,26.1c-1.1,0.4-1.9,1.2-2.2,2.3l0,0.2l0-0.2c-0.3-1.1-1.1-2-2.2-2.2l-0.2,0l0.2,0
		c1.1-0.3,2-1.1,2.2-2.2l0-0.2l0,0.2C12.8,25,13.7,25.8,14.8,26.1L14.8,26.1z"/>
	<path class="st0" d="M15.8,21l0.1,0L15.8,21c-0.8,0.3-1.4,0.9-1.6,1.7l0,0.1l0-0.1c-0.2-0.8-0.8-1.4-1.6-1.6l-0.1,0l0.1,0
		c0.8-0.2,1.4-0.8,1.6-1.6l0-0.1l0,0.1C14.4,20.2,15,20.8,15.8,21L15.8,21z"/>
	<path class="st3" d="M47.9,31.9l0.1,0L47.9,31.9c-0.8,0.3-1.5,0.9-1.7,1.7l0,0.1l0-0.1c-0.2-0.8-0.8-1.5-1.7-1.7l-0.1,0l0.1,0
		c0.8-0.2,1.5-0.9,1.7-1.7l0-0.1l0,0.1C46.4,31.1,47,31.7,47.9,31.9L47.9,31.9z"/>
	<path class="st4" d="M42,15.5l0.2,0L42,15.5c-0.9,0.3-1.6,1-1.9,1.9l0,0.2l0-0.2c-0.2-0.9-0.9-1.6-1.9-1.9l-0.2,0l0.2,0
		c0.9-0.2,1.6-0.9,1.9-1.9l0-0.2l0,0.2C40.3,14.6,41,15.3,42,15.5L42,15.5z"/>
	<path class="st5" d="M17.6,28.1c0.7,0.4,1.8,0.4,2.4,0.4h15.4c-0.8-0.9-1.3-2.2-1.3-3.5c0-0.3,0-0.7,0.1-1H19
		c-1.5,0-2.6,1.2-2.7,2.6C16.4,26.7,16.5,27.5,17.6,28.1z"/>
	<path class="st3" d="M39.5,19.6c-3,0-5.4,2.4-5.4,5.4c0,1.3,0.5,2.6,1.3,3.5h4.9c0.9,0,1.6,0.4,2.1,1c1.5-1,2.5-2.6,2.5-4.5
		C44.9,22,42.5,19.6,39.5,19.6z"/>
	<path class="st6" d="M37.5,28.4h2.9c0.3,0,0.6,0.1,0.9,0.2c1.4-0.7,2.3-2,2.3-3.7c0-2.2-1.8-4.1-4-4.1c-2.2,0-4,1.8-4,4.1
		C35.5,26.4,36.3,27.7,37.5,28.4z"/>
	<polygon class="st2" points="39.5,26 37.9,24.8 39.5,22.2 41.2,24.8 	"/>
	<polygon class="st2" points="39.5,27.7 37.9,25.1 39.5,26.4 41.2,25.1 	"/>
	<path class="st7" d="M40.3,46.8H19c-1.5,0-2.7-1.2-2.7-2.7V26.5c0,0,0.1,1,1.2,1.5c0.7,0.4,1.8,0.4,2.4,0.4h20.4
		c1.5,0,2.7,1.2,2.7,2.7v13C43,45.6,41.8,46.8,40.3,46.8L40.3,46.8z"/>
	<path class="st6" d="M35.8,40.2c-0.7,0-1.2-0.5-1.2-1.2v-2.9c0-0.7,0.5-1.2,1.2-1.2H43v5.3H35.8z"/>
	<path class="st1" d="M38.1,37.6c0,0.7-0.5,1.2-1.2,1.2c-0.7,0-1.2-0.5-1.2-1.2c0-0.7,0.5-1.2,1.2-1.2
		C37.6,36.4,38.1,36.9,38.1,37.6z"/>
	<path class="st4" d="M36.7,16.7c0,3-2.4,5.4-5.4,5.4c-3,0-5.4-2.4-5.4-5.4c0-3,2.4-5.4,5.4-5.4C34.3,11.3,36.7,13.7,36.7,16.7z"/>
	<path class="st8" d="M35.3,16.7c0,2.2-1.8,4.1-4,4.1c-2.2,0-4.1-1.8-4.1-4.1s1.8-4,4.1-4C33.5,12.6,35.3,14.4,35.3,16.7z"/>
	<polygon class="st2" points="33.5,17.7 33.5,14.9 31.3,17.2 29,14.9 29,17.7 28.4,17.7 28.4,18.5 29.8,18.5 29.8,16.7 31.3,18.2 
		32.8,16.7 32.8,18.5 34.2,18.5 34.2,17.7 	"/>
	<path class="st2" d="M29.2,36.4c-0.7,0-1.3,0.5-1.4,1.2H25l-2-2.3h-6.6v0.6h6.3l2,2.3h3c0.1,0.7,0.7,1.2,1.4,1.2
		c0.8,0,1.5-0.7,1.5-1.5C30.7,37.1,30,36.4,29.2,36.4z M29.2,38.8c-0.4,0-0.7-0.2-0.8-0.6h0.3c0.1,0.2,0.3,0.3,0.5,0.3
		c0.3,0,0.6-0.3,0.6-0.6c0-0.3-0.3-0.6-0.6-0.6c-0.2,0-0.4,0.1-0.5,0.3h-0.3c0.1-0.3,0.4-0.6,0.8-0.6c0.5,0,0.9,0.4,0.9,0.9
		C30.1,38.4,29.7,38.8,29.2,38.8z"/>
	<path class="st2" d="M39.8,42.5l-1-0.6H26.6L25,44.2h-2.7c-0.1-0.7-0.7-1.2-1.4-1.2c-0.8,0-1.5,0.7-1.5,1.5c0,0.8,0.7,1.5,1.5,1.5
		c0.7,0,1.3-0.5,1.4-1.2h3l1.6-2.3h11.6l1,0.6H43v-0.6H39.8z M20.9,45.4c-0.5,0-0.9-0.4-0.9-0.9c0-0.5,0.4-0.9,0.9-0.9
		c0.4,0,0.7,0.2,0.8,0.6h-0.3c-0.1-0.2-0.3-0.3-0.5-0.3c-0.3,0-0.6,0.3-0.6,0.6c0,0.3,0.3,0.6,0.6,0.6c0.2,0,0.4-0.1,0.5-0.3h0.3
		C21.5,45.1,21.2,45.4,20.9,45.4z"/>
	<path class="st2" d="M23.6,39.2c-0.2,0-0.4,0.1-0.5,0.3h-3l-0.6,1.2h-3.2v0.6h3.6l0.6-1.2h2.6c0.1,0.2,0.3,0.3,0.5,0.3
		c0.3,0,0.6-0.3,0.6-0.6C24.2,39.4,23.9,39.2,23.6,39.2z"/>
	<path class="st2" d="M31.9,30.3c-0.2,0-0.4,0.1-0.5,0.3h-2.2L28,29.9h-8.6l-0.6,1.2h-2.4v0.6h2.7l0.6-1.2h8.1l1.2,0.6h2.3
		c0.1,0.2,0.3,0.3,0.5,0.3c0.3,0,0.6-0.3,0.6-0.6C32.5,30.5,32.2,30.3,31.9,30.3z"/>
	<path class="st2" d="M34.5,31.9l-1.2,2.3h-5l-2-1.6h-3.9c-0.1-0.2-0.3-0.3-0.5-0.3c-0.3,0-0.6,0.3-0.6,0.6c0,0.3,0.3,0.6,0.6,0.6
		c0.2,0,0.4-0.1,0.5-0.3h3.7l2,1.6h5.6l1.2-2.3H43v-0.6H34.5z"/>
</g>
</svg>
